#tb 0: 1/1000
0,          0,          0,        0,      990, 1bd8b2d3bf679c4b925780bf82e12fae
0,         33,         33,        0,      990, a0254b4cd4928fe1080cd6f8828288a9
0,         66,         66,        0,      990, e416e99644cca481dc2806708d716ecb
0,        100,        100,        0,      990, b1ed3203ffc77ed814f1cda7bfe721d2
0,        133,        133,        0,      990, 0ff7b9d84765f7b0b0650775ba72b334
0,        166,        166,        0,      990, 8b6cd91e035bad19b46b132bd411231d
0,        200,        200,        0,      990, c714759a9a64402043ad00e5677c954c
0,        233,        233,        0,      990, 8e4738010b724ce66bcd0a5d5afcfbc1
0,        266,        266,        0,      990, 998a7aab8ed94f4b69bed39fb487f8d5
0,        300,        300,        0,      990, 9964683a15a65c032631a4f608e6009b
